<svg width="254" height="71" viewBox="0 0 254 71" fill="none" xmlns="http://www.w3.org/2000/svg">
<path d="M19.034 13.886C24.1593 13.886 26.722 16.614 26.722 22.07V45.816C26.722 51.272 24.1593 54 19.034 54H3.1V13.886H19.034ZM18.042 46.808V21.016C18.042 20.6853 17.918 20.396 17.67 20.148C17.4633 19.9 17.1947 19.776 16.864 19.776H11.78V48.048H16.864C17.1947 48.048 17.4633 47.924 17.67 47.676C17.918 47.428 18.042 47.1387 18.042 46.808ZM47.5758 23.124C52.7011 23.124 55.2638 25.852 55.2638 31.308V41.104H41.1898V47.428C41.1898 47.7587 41.2931 48.048 41.4998 48.296C41.7478 48.544 42.0371 48.668 42.3678 48.668H45.7778C46.1085 48.668 46.3771 48.544 46.5838 48.296C46.8318 48.048 46.9558 47.7587 46.9558 47.428V44.08H55.2638V46.436C55.2638 51.892 52.7011 54.62 47.5758 54.62H40.5698C35.4445 54.62 32.8818 51.892 32.8818 46.436V31.308C32.8818 25.852 35.4445 23.124 40.5698 23.124H47.5758ZM41.1898 35.648H46.9558V30.068C46.9558 29.7373 46.8318 29.448 46.5838 29.2C46.3771 28.952 46.1085 28.828 45.7778 28.828H42.3678C42.0371 28.828 41.7478 28.952 41.4998 29.2C41.2931 29.448 41.1898 29.7373 41.1898 30.068V35.648ZM74.0852 35.028C79.2105 35.028 81.7732 37.756 81.7732 43.212V46.436C81.7732 51.892 79.2105 54.62 74.0852 54.62H67.2032C62.0778 54.62 59.5152 51.892 59.5152 46.436V44.514H67.2032V47.242C67.2032 47.5727 67.3065 47.862 67.5132 48.11C67.7612 48.358 68.0505 48.482 68.3812 48.482H73.4652C73.7958 48.482 74.0645 48.358 74.2712 48.11C74.5192 47.862 74.6432 47.5727 74.6432 47.242V43.522C74.6432 43.1913 74.5192 42.902 74.2712 42.654C74.0645 42.406 73.7958 42.282 73.4652 42.282H67.0792C61.9538 42.282 59.3912 39.554 59.3912 34.098V31.308C59.3912 25.852 61.9538 23.124 67.0792 23.124H73.5892C78.7145 23.124 81.2772 25.852 81.2772 31.308V32.424H73.5892V30.502C73.5892 30.1713 73.4652 29.882 73.2172 29.634C73.0105 29.386 72.7418 29.262 72.4112 29.262H67.6992C67.3685 29.262 67.0792 29.386 66.8312 29.634C66.6245 29.882 66.5212 30.1713 66.5212 30.502V33.788C66.5212 34.1187 66.6245 34.408 66.8312 34.656C67.0792 34.904 67.3685 35.028 67.6992 35.028H74.0852ZM95.0794 19.962C94.2114 20.83 93.1574 21.264 91.9174 21.264C90.6774 21.264 89.6028 20.83 88.6934 19.962C87.7841 19.0527 87.3294 17.978 87.3294 16.738C87.3294 15.4567 87.7841 14.382 88.6934 13.514C89.6028 12.6047 90.6774 12.15 91.9174 12.15C93.1574 12.15 94.2114 12.6047 95.0794 13.514C95.9888 14.382 96.4434 15.4567 96.4434 16.738C96.4434 18.0193 95.9888 19.094 95.0794 19.962ZM87.7634 54V23.744H96.0714V54H87.7634ZM124.287 23.744V56.294C124.287 61.75 121.725 64.478 116.599 64.478H110.399C105.274 64.478 102.711 61.75 102.711 56.294V55.302H110.213V57.286C110.213 57.6167 110.317 57.906 110.523 58.154C110.771 58.402 111.061 58.526 111.391 58.526H114.801C115.132 58.526 115.401 58.402 115.607 58.154C115.855 57.906 115.979 57.6167 115.979 57.286V51.086C114.698 52.078 113.003 52.574 110.895 52.574H109.593C104.468 52.574 101.905 49.846 101.905 44.39V31.308C101.905 25.852 104.468 23.124 109.593 23.124H110.895C113.871 23.124 116 24.0747 117.281 25.976V23.744H124.287ZM115.979 45.382V30.316C115.979 29.9853 115.855 29.696 115.607 29.448C115.401 29.2 115.132 29.076 114.801 29.076H111.391C111.061 29.076 110.771 29.2 110.523 29.448C110.317 29.696 110.213 29.9853 110.213 30.316V45.382C110.213 45.7127 110.317 46.002 110.523 46.25C110.771 46.498 111.061 46.622 111.391 46.622H114.801C115.132 46.622 115.401 46.498 115.607 46.25C115.855 46.002 115.979 45.7127 115.979 45.382ZM138.246 54H129.938V23.744H137.502V25.294C138.784 23.8473 140.726 23.124 143.33 23.124H144.632C149.758 23.124 152.32 25.852 152.32 31.308V54H144.012V30.316C144.012 29.9853 143.888 29.696 143.64 29.448C143.434 29.2 143.165 29.076 142.834 29.076H139.424C139.094 29.076 138.804 29.2 138.556 29.448C138.35 29.696 138.246 29.9853 138.246 30.316V54Z" fill="black"/>
<path d="M166.962 38.252V54H158.282V13.886H166.962V30.688H173.844V13.886H182.524V54H173.844V38.252H166.962ZM196.859 19.962C195.991 20.83 194.937 21.264 193.697 21.264C192.457 21.264 191.382 20.83 190.473 19.962C189.563 19.0527 189.109 17.978 189.109 16.738C189.109 15.4567 189.563 14.382 190.473 13.514C191.382 12.6047 192.457 12.15 193.697 12.15C194.937 12.15 195.991 12.6047 196.859 13.514C197.768 14.382 198.223 15.4567 198.223 16.738C198.223 18.0193 197.768 19.094 196.859 19.962ZM189.543 54V23.744H197.851V54H189.543ZM217.635 23.744H225.695L219.061 54H208.087L201.453 23.744H209.513L213.605 47.242L217.635 23.744ZM243.99 23.124C249.115 23.124 251.678 25.852 251.678 31.308V41.104H237.604V47.428C237.604 47.7587 237.707 48.048 237.914 48.296C238.162 48.544 238.451 48.668 238.782 48.668H242.192C242.523 48.668 242.791 48.544 242.998 48.296C243.246 48.048 243.37 47.7587 243.37 47.428V44.08H251.678V46.436C251.678 51.892 249.115 54.62 243.99 54.62H236.984C231.859 54.62 229.296 51.892 229.296 46.436V31.308C229.296 25.852 231.859 23.124 236.984 23.124H243.99ZM237.604 35.648H243.37V30.068C243.37 29.7373 243.246 29.448 242.998 29.2C242.791 28.952 242.523 28.828 242.192 28.828H238.782C238.451 28.828 238.162 28.952 237.914 29.2C237.707 29.448 237.604 29.7373 237.604 30.068V35.648Z" fill="#0046A3"/>
<g clip-path="url(#clip0_109_10)">
<circle cx="162.5" cy="65.5" r="5.5" fill="#FF3131"/>
<circle cx="183.5" cy="65.5" r="5.5" fill="#FF3131"/>
<circle cx="204.5" cy="65.5" r="5.5" fill="#FF3131"/>
<circle cx="225.5" cy="65.5" r="5.5" fill="#FF3131"/>
<circle cx="246.5" cy="65.5" r="5.5" fill="#FF3131"/>
</g>
<defs>
<clipPath id="clip0_109_10">
<rect width="95" height="11" fill="white" transform="translate(157 60)"/>
</clipPath>
</defs>
</svg>
